<svg width="346" height="110" viewBox="0 0 346 110" fill="none" xmlns="http://www.w3.org/2000/svg">
<rect width="345.148" height="110" fill="white"/>
<path d="M35.4615 42.7183L34.7806 45.2529V23.7985C34.7806 22.2555 36.0311 21 37.568 21H88.442C89.9789 21 91.2294 22.2554 91.2294 23.7985V45.2563L90.5485 42.7218C90.4744 42.4375 90.2182 42.2412 89.925 42.2412H86.4837L86.3792 41.3479C86.1703 39.5511 84.6502 38.1941 82.8469 38.1941H81.4583V30.7292C81.4583 29.2809 80.2853 28.1067 78.8462 28.1067L47.1636 28.1033C45.721 28.1033 44.5515 29.281 44.5515 30.7258V38.1908H43.1628C41.3597 38.1908 39.8429 39.5477 39.6306 41.3445L39.5261 42.2379H36.0848C35.7916 42.2379 35.5356 42.434 35.4615 42.7183ZM32.9168 56.467H35.1008C35.6064 56.467 36.0176 56.0542 36.0176 55.5466V48.163C36.0176 47.6554 35.6064 47.2425 35.1008 47.2425H32.9168C32.4112 47.2425 32 47.6554 32 48.163V55.5466C32 56.0542 32.4112 56.467 32.9168 56.467ZM89.9824 48.163V55.5466C89.9824 56.0542 90.3936 56.467 90.8992 56.467H93.0832C93.5888 56.467 94 56.0542 94 55.5466V48.163C94 47.6554 93.5888 47.2425 93.0832 47.2425H90.8992C90.397 47.2425 89.9824 47.6554 89.9824 48.163ZM90.1105 46.0954L89.4229 43.5372H86.6288L88.4792 59.3607C88.496 59.496 88.5028 59.6382 88.5028 59.7769V69.4039C90.0094 69.3701 91.2261 68.1315 91.2261 66.6121V57.77H90.9025C89.6823 57.77 88.6915 56.7752 88.6915 55.5502V48.1665C88.6881 47.2189 89.2814 46.4169 90.1105 46.0954ZM89.4398 80.926V77.4169C89.4398 76.9296 89.0421 76.5303 88.5568 76.5303H37.4438C36.9585 76.5303 36.5608 76.9262 36.5608 77.4169V80.926C36.5608 81.4133 36.9551 81.8125 37.4438 81.8125H88.5602C89.0456 81.8125 89.4398 81.4132 89.4398 80.926ZM81.4248 89H84.7245C85.5873 89 86.285 88.2962 86.285 87.4333V83.112H79.8609V87.4333C79.8609 88.2961 80.5619 89 81.4248 89ZM35.1006 57.7662H34.7771V66.6083C34.7771 68.1277 35.9938 69.3629 37.5003 69.4001V59.7766C37.5003 59.6378 37.5071 59.4991 37.5239 59.3604L39.3743 43.5369H36.5802L35.8926 46.0951C36.7217 46.4166 37.3149 47.2186 37.3149 48.1626V55.5463C37.3149 56.7713 36.3208 57.7662 35.1006 57.7662ZM72.3546 64.0874V71.8365C72.3546 72.3103 71.9704 72.6961 71.4985 72.6961H54.5083C54.0364 72.6961 53.6522 72.3103 53.6522 71.8365V64.0874C53.6522 63.6136 54.0364 63.2279 54.5083 63.2279H71.4985C71.9704 63.2279 72.3546 63.6136 72.3546 64.0874ZM71.5861 71.0583C71.5861 70.6996 71.2963 70.4086 70.939 70.4086H55.0645C54.7072 70.4086 54.4174 70.6996 54.4174 71.0583C54.4174 71.417 54.7072 71.708 55.0645 71.708H70.939C71.2963 71.708 71.5861 71.417 71.5861 71.0583ZM71.5861 67.9857C71.5861 67.627 71.2963 67.3359 70.939 67.3359H55.0645C54.7072 67.3359 54.4174 67.627 54.4174 67.9857C54.4174 68.3443 54.7072 68.6354 55.0645 68.6354H70.939C71.2963 68.6354 71.5861 68.3443 71.5861 67.9857ZM71.5861 64.9164C71.5861 64.5577 71.2963 64.2667 70.939 64.2667H55.0645C54.7072 64.2667 54.4174 64.5577 54.4174 64.9164C54.4174 65.2751 54.7072 65.5661 55.0645 65.5661H70.939C71.2963 65.5661 71.5861 65.2751 71.5861 64.9164ZM78.8394 29.4023H47.1636C46.4356 29.4023 45.8458 29.9979 45.8458 30.7254V38.1903H80.1575V30.7254C80.1575 29.9979 79.564 29.4023 78.8394 29.4023ZM43.1626 39.4928H82.8429C83.9889 39.4928 84.9528 40.3557 85.0877 41.4994L87.1942 59.5155C87.2043 59.6035 87.2111 59.6915 87.2111 59.7794V75.2374H38.798L38.7946 59.776C38.7946 59.688 38.8014 59.6 38.8115 59.512L40.918 41.4994C41.0494 40.3523 42.0132 39.4928 43.1626 39.4928ZM49.9339 68.5947C49.9339 67.6066 49.1318 66.8012 48.1476 66.8012H42.5661C41.5819 66.8012 40.7797 67.6066 40.7797 68.5947V72.0056C40.7797 72.9937 41.5819 73.7991 42.5661 73.7991H48.1476C49.1318 73.7991 49.9339 72.9937 49.9339 72.0056V68.5947ZM73.6482 64.0873C73.6482 62.8962 72.6843 61.9283 71.4979 61.9283H54.5077C53.3213 61.9283 52.3573 62.8962 52.3573 64.0873L52.3539 71.8364C52.3539 73.0276 53.3179 73.9954 54.5043 73.9954H71.4945C72.6809 73.9954 73.6449 73.0276 73.6449 71.8364L73.6482 64.0873ZM85.2258 68.5947C85.2258 67.6066 84.4237 66.8012 83.4395 66.8012H77.858C76.8738 66.8012 76.0716 67.6066 76.0716 68.5947V72.0056C76.0716 72.9937 76.8738 73.7991 77.858 73.7991H83.4395C84.4237 73.7991 85.2258 72.9937 85.2258 72.0056V68.5947ZM43.8026 41.0192C42.5083 41.0192 41.4197 42.0344 41.3253 43.3338L40.2805 57.7253C40.2299 58.4156 40.4692 59.0992 40.9377 59.6068C41.4062 60.1144 42.0702 60.402 42.7578 60.402H83.2405C83.9416 60.402 84.6123 60.1042 85.0808 59.5831C85.5493 59.062 85.7819 58.3615 85.7111 57.661L84.2821 43.2695C84.154 41.9903 83.0889 41.0225 81.8081 41.0225L43.8026 41.0192ZM41.2781 88.9999H44.5778C45.4372 88.9999 46.1383 88.2961 46.1383 87.4332V83.1119H39.7142V87.4332C39.7176 88.2961 40.4186 88.9999 41.2781 88.9999ZM83.4356 68.1009H77.8541C77.5811 68.1009 77.362 68.3242 77.362 68.5949V72.0059C77.362 72.28 77.5844 72.5 77.8541 72.5H83.4356C83.7086 72.5 83.9277 72.2766 83.9277 72.0059V68.5949C83.9311 68.3242 83.7086 68.1009 83.4356 68.1009ZM84.1232 58.7069C84.3524 58.4531 84.4602 58.1249 84.4265 57.7865L82.9975 43.3949C82.9368 42.7825 82.4245 42.3188 81.8111 42.3188H63.6474V59.0996H83.2434C83.5805 59.0996 83.8974 58.9607 84.1232 58.7069ZM41.888 58.7204C42.1172 58.9675 42.4239 59.1028 42.761 59.1028L62.3535 59.0994V42.3187H43.8024C43.1822 42.3187 42.6598 42.806 42.616 43.4286L41.5712 57.8201C41.5476 58.1517 41.6588 58.4734 41.888 58.7204ZM48.147 68.1005H42.5654C42.2924 68.1005 42.0734 68.3239 42.0734 68.5946V72.0056C42.0734 72.2797 42.2958 72.4996 42.5654 72.4996H48.147C48.42 72.4996 48.6391 72.2763 48.6391 72.0056V68.5946C48.6391 68.3239 48.42 68.1005 48.147 68.1005Z" fill="black"/>
<path d="M107.84 66.5004V63.0444H111.224V44.7564H107.84V41.3004H120.62C122.132 41.3004 123.452 41.5644 124.58 42.0924C125.708 42.5964 126.584 43.3284 127.208 44.2884C127.856 45.2244 128.18 46.3404 128.18 47.6364V47.9964C128.18 49.1484 127.964 50.0964 127.532 50.8404C127.1 51.5844 126.572 52.1604 125.948 52.5684C125.348 52.9764 124.772 53.2644 124.22 53.4324V54.0084C124.772 54.1524 125.36 54.4404 125.984 54.8724C126.632 55.2804 127.172 55.8564 127.604 56.6004C128.06 57.3444 128.288 58.3164 128.288 59.5164V59.8764C128.288 61.2684 127.964 62.4564 127.316 63.4404C126.668 64.4244 125.768 65.1804 124.616 65.7084C123.488 66.2364 122.18 66.5004 120.692 66.5004H107.84ZM115.148 62.9724H120.224C121.52 62.9724 122.54 62.6604 123.284 62.0364C124.028 61.4124 124.4 60.5484 124.4 59.4444V59.1204C124.4 58.0164 124.028 57.1524 123.284 56.5284C122.564 55.9044 121.544 55.5924 120.224 55.5924H115.148V62.9724ZM115.148 52.0284H120.224C121.448 52.0284 122.432 51.7284 123.176 51.1284C123.92 50.5044 124.292 49.6644 124.292 48.6084V48.2484C124.292 47.1924 123.92 46.3644 123.176 45.7644C122.456 45.1404 121.472 44.8284 120.224 44.8284H115.148V52.0284ZM132.647 66.5004V41.3004H136.535V51.7764H137.111L146.507 41.3004H151.583L140.207 53.7204L151.979 66.5004H146.759L137.111 55.8084H136.535V66.5004H132.647ZM164.077 66.5004V41.3004H179.953V44.8284H167.965V52.0644H178.945V55.5924H167.965V62.9724H180.133V66.5004H164.077ZM182.53 66.5004L190.27 53.7924L182.638 41.3004H187.102L192.79 51.0204H193.366L199.09 41.3004H203.554L195.922 53.7924L203.662 66.5004H199.162L193.366 56.5644H192.79L186.994 66.5004H182.53ZM207.249 66.5004V41.3004H217.257C218.793 41.3004 220.161 41.6124 221.361 42.2364C222.585 42.8364 223.533 43.7004 224.205 44.8284C224.901 45.9324 225.249 47.2644 225.249 48.8244V49.2924C225.249 50.8524 224.889 52.1964 224.169 53.3244C223.473 54.4524 222.525 55.3164 221.325 55.9164C220.125 56.5164 218.769 56.8164 217.257 56.8164H211.137V66.5004H207.249ZM211.137 53.2884H216.861C218.229 53.2884 219.321 52.9284 220.137 52.2084C220.953 51.4884 221.361 50.5044 221.361 49.2564V48.8964C221.361 47.6244 220.953 46.6284 220.137 45.9084C219.321 45.1884 218.229 44.8284 216.861 44.8284H211.137V53.2884ZM228.94 66.5004V41.3004H239.524C241.084 41.3004 242.452 41.5764 243.628 42.1284C244.828 42.6564 245.752 43.4244 246.4 44.4324C247.072 45.4404 247.408 46.6404 247.408 48.0324V48.4284C247.408 50.0124 247.024 51.2844 246.256 52.2444C245.512 53.1804 244.6 53.8404 243.52 54.2244V54.8004C244.432 54.8484 245.164 55.1604 245.716 55.7364C246.268 56.2884 246.544 57.0924 246.544 58.1484V66.5004H242.62V58.6884C242.62 58.0404 242.452 57.5244 242.116 57.1404C241.78 56.7564 241.24 56.5644 240.496 56.5644H232.828V66.5004H228.94ZM232.828 53.0364H239.092C240.484 53.0364 241.564 52.6884 242.332 51.9924C243.1 51.2724 243.484 50.3004 243.484 49.0764V48.7884C243.484 47.5644 243.1 46.6044 242.332 45.9084C241.588 45.1884 240.508 44.8284 239.092 44.8284H232.828V53.0364ZM251.686 66.5004V41.3004H267.562V44.8284H255.574V52.0644H266.554V55.5924H255.574V62.9724H267.742V66.5004H251.686ZM280.364 67.0044C278.468 67.0044 276.788 66.6684 275.324 65.9964C273.86 65.3244 272.708 64.3404 271.868 63.0444C271.052 61.7244 270.644 60.1284 270.644 58.2564V57.3564H274.496V58.2564C274.496 60.0324 275.024 61.3644 276.08 62.2524C277.16 63.1404 278.588 63.5844 280.364 63.5844C282.164 63.5844 283.52 63.2124 284.432 62.4684C285.344 61.7004 285.8 60.7164 285.8 59.5164C285.8 58.7244 285.584 58.0764 285.152 57.5724C284.72 57.0684 284.108 56.6724 283.316 56.3844C282.524 56.0724 281.576 55.7844 280.472 55.5204L279.14 55.1964C277.532 54.8124 276.128 54.3444 274.928 53.7924C273.752 53.2164 272.84 52.4604 272.192 51.5244C271.544 50.5884 271.22 49.3884 271.22 47.9244C271.22 46.4364 271.58 45.1644 272.3 44.1084C273.044 43.0524 274.064 42.2364 275.36 41.6604C276.656 41.0844 278.18 40.7964 279.932 40.7964C281.684 40.7964 283.244 41.0964 284.612 41.6964C286.004 42.2964 287.096 43.1844 287.888 44.3604C288.68 45.5364 289.076 47.0124 289.076 48.7884V50.0844H285.224V48.7884C285.224 47.7084 284.996 46.8324 284.54 46.1604C284.108 45.4884 283.496 44.9964 282.704 44.6844C281.912 44.3724 280.988 44.2164 279.932 44.2164C278.396 44.2164 277.196 44.5404 276.332 45.1884C275.492 45.8124 275.072 46.6884 275.072 47.8164C275.072 48.5844 275.252 49.2204 275.612 49.7244C275.996 50.2044 276.548 50.6004 277.268 50.9124C277.988 51.2244 278.888 51.5004 279.968 51.7404L281.3 52.0644C282.932 52.4244 284.372 52.8924 285.62 53.4684C286.868 54.0204 287.852 54.7764 288.572 55.7364C289.292 56.6964 289.652 57.9324 289.652 59.4444C289.652 60.9564 289.268 62.2764 288.5 63.4044C287.756 64.5324 286.688 65.4204 285.296 66.0684C283.904 66.6924 282.26 67.0044 280.364 67.0044ZM302.301 67.0044C300.405 67.0044 298.725 66.6684 297.261 65.9964C295.797 65.3244 294.645 64.3404 293.805 63.0444C292.989 61.7244 292.581 60.1284 292.581 58.2564V57.3564H296.433V58.2564C296.433 60.0324 296.961 61.3644 298.017 62.2524C299.097 63.1404 300.525 63.5844 302.301 63.5844C304.101 63.5844 305.457 63.2124 306.369 62.4684C307.281 61.7004 307.737 60.7164 307.737 59.5164C307.737 58.7244 307.521 58.0764 307.089 57.5724C306.657 57.0684 306.045 56.6724 305.253 56.3844C304.461 56.0724 303.513 55.7844 302.409 55.5204L301.077 55.1964C299.469 54.8124 298.065 54.3444 296.865 53.7924C295.689 53.2164 294.777 52.4604 294.129 51.5244C293.481 50.5884 293.157 49.3884 293.157 47.9244C293.157 46.4364 293.517 45.1644 294.237 44.1084C294.981 43.0524 296.001 42.2364 297.297 41.6604C298.593 41.0844 300.117 40.7964 301.869 40.7964C303.621 40.7964 305.181 41.0964 306.549 41.6964C307.941 42.2964 309.033 43.1844 309.825 44.3604C310.617 45.5364 311.013 47.0124 311.013 48.7884V50.0844H307.161V48.7884C307.161 47.7084 306.933 46.8324 306.477 46.1604C306.045 45.4884 305.433 44.9964 304.641 44.6844C303.849 44.3724 302.925 44.2164 301.869 44.2164C300.333 44.2164 299.133 44.5404 298.269 45.1884C297.429 45.8124 297.009 46.6884 297.009 47.8164C297.009 48.5844 297.189 49.2204 297.549 49.7244C297.933 50.2044 298.485 50.6004 299.205 50.9124C299.925 51.2244 300.825 51.5004 301.905 51.7404L303.237 52.0644C304.869 52.4244 306.309 52.8924 307.557 53.4684C308.805 54.0204 309.789 54.7764 310.509 55.7364C311.229 56.6964 311.589 57.9324 311.589 59.4444C311.589 60.9564 311.205 62.2764 310.437 63.4044C309.693 64.5324 308.625 65.4204 307.233 66.0684C305.841 66.6924 304.197 67.0044 302.301 67.0044Z" fill="black"/>
</svg>
